<svg xmlns="http://www.w3.org/2000/svg" xmlns:xlink="http://www.w3.org/1999/xlink" width="500" zoomAndPan="magnify" viewBox="0 0 375 374.999991" height="500" preserveAspectRatio="xMidYMid meet" version="1.0"><defs><g/></defs><g fill="#2b2b2b" fill-opacity="1"><g transform="translate(33.346913, 213.752585)"><g><path d="M 14.875 0 C 13.675781 0 12.253906 0.117188 10.609375 0.359375 C 8.972656 0.597656 7.4375 0.71875 6 0.71875 C 4.632812 0.71875 3.492188 0.515625 2.578125 0.109375 C 1.660156 -0.285156 1.203125 -1.082031 1.203125 -2.28125 C 1.203125 -3.15625 1.398438 -3.8125 1.796875 -4.25 C 2.203125 -4.695312 2.679688 -5.257812 3.234375 -5.9375 C 3.796875 -6.613281 4.273438 -7.671875 4.671875 -9.109375 C 5.078125 -10.554688 5.28125 -12.679688 5.28125 -15.484375 C 5.28125 -18.203125 5.28125 -21.359375 5.28125 -24.953125 C 5.28125 -28.554688 5.300781 -32.140625 5.34375 -35.703125 C 5.382812 -39.265625 5.40625 -42.34375 5.40625 -44.9375 C 5.40625 -47.539062 5.40625 -49.203125 5.40625 -49.921875 C 5.40625 -52.078125 5.0625 -53.578125 4.375 -54.421875 C 3.695312 -55.265625 3.015625 -55.925781 2.328125 -56.40625 C 1.648438 -56.882812 1.3125 -57.644531 1.3125 -58.6875 C 1.3125 -59.882812 1.710938 -60.703125 2.515625 -61.140625 C 3.316406 -61.578125 4.457031 -61.957031 5.9375 -62.28125 C 7.414062 -62.601562 9.195312 -63.125 11.28125 -63.84375 C 13.84375 -64.800781 15.601562 -65.660156 16.5625 -66.421875 C 17.519531 -67.179688 18.238281 -67.800781 18.71875 -68.28125 C 19.195312 -68.757812 19.957031 -69 21 -69 C 22.4375 -69 23.394531 -68.359375 23.875 -67.078125 C 24.351562 -65.796875 24.59375 -64.273438 24.59375 -62.515625 L 24.59375 -15.484375 C 24.59375 -12.679688 24.789062 -10.554688 25.1875 -9.109375 C 25.59375 -7.671875 26.078125 -6.613281 26.640625 -5.9375 C 27.203125 -5.257812 27.679688 -4.695312 28.078125 -4.25 C 28.484375 -3.8125 28.6875 -3.15625 28.6875 -2.28125 C 28.6875 -1.082031 28.222656 -0.285156 27.296875 0.109375 C 26.378906 0.515625 25.238281 0.71875 23.875 0.71875 C 22.351562 0.71875 20.773438 0.597656 19.140625 0.359375 C 17.503906 0.117188 16.082031 0 14.875 0 Z M 14.875 0 "/></g></g></g><g fill="#2b2b2b" fill-opacity="1"><g transform="translate(58.30693, 213.752585)"><g><path d="M 15.234375 0 C 14.035156 0 12.613281 0.117188 10.96875 0.359375 C 9.332031 0.597656 7.796875 0.71875 6.359375 0.71875 C 4.992188 0.71875 3.851562 0.515625 2.9375 0.109375 C 2.019531 -0.285156 1.5625 -1.082031 1.5625 -2.28125 C 1.5625 -3.15625 1.757812 -3.8125 2.15625 -4.25 C 2.5625 -4.695312 3.039062 -5.257812 3.59375 -5.9375 C 4.15625 -6.613281 4.632812 -7.671875 5.03125 -9.109375 C 5.4375 -10.554688 5.640625 -12.679688 5.640625 -15.484375 C 5.640625 -19.160156 5.660156 -21.816406 5.703125 -23.453125 C 5.742188 -25.097656 5.765625 -26.300781 5.765625 -27.0625 C 5.765625 -27.820312 5.765625 -28.679688 5.765625 -29.640625 C 5.765625 -31.796875 5.421875 -33.296875 4.734375 -34.140625 C 4.054688 -34.984375 3.378906 -35.644531 2.703125 -36.125 C 2.023438 -36.601562 1.6875 -37.363281 1.6875 -38.40625 C 1.6875 -39.601562 2.082031 -40.421875 2.875 -40.859375 C 3.675781 -41.296875 4.816406 -41.675781 6.296875 -42 C 7.773438 -42.320312 9.554688 -42.84375 11.640625 -43.5625 C 14.203125 -44.519531 15.960938 -45.378906 16.921875 -46.140625 C 17.878906 -46.898438 18.597656 -47.519531 19.078125 -48 C 19.554688 -48.476562 20.316406 -48.71875 21.359375 -48.71875 C 22.796875 -48.71875 23.753906 -48.078125 24.234375 -46.796875 C 24.710938 -45.515625 24.953125 -43.992188 24.953125 -42.234375 L 24.953125 -15.484375 C 24.953125 -12.679688 25.148438 -10.554688 25.546875 -9.109375 C 25.953125 -7.671875 26.4375 -6.613281 27 -5.9375 C 27.5625 -5.257812 28.039062 -4.695312 28.4375 -4.25 C 28.84375 -3.8125 29.046875 -3.15625 29.046875 -2.28125 C 29.046875 -1.082031 28.582031 -0.285156 27.65625 0.109375 C 26.738281 0.515625 25.597656 0.71875 24.234375 0.71875 C 22.710938 0.71875 21.132812 0.597656 19.5 0.359375 C 17.863281 0.117188 16.441406 0 15.234375 0 Z M 1.5625 -52.078125 C 0.757812 -54.484375 1.175781 -57.082031 2.8125 -59.875 C 4.457031 -62.675781 6.957031 -64.957031 10.3125 -66.71875 C 13.113281 -68.15625 15.675781 -68.875 18 -68.875 C 21.519531 -68.875 23.800781 -67.4375 24.84375 -64.5625 C 25.71875 -62.082031 25.332031 -59.484375 23.6875 -56.765625 C 22.050781 -54.046875 19.554688 -51.765625 16.203125 -49.921875 C 13.316406 -48.484375 10.71875 -47.765625 8.40625 -47.765625 C 4.957031 -47.765625 2.675781 -49.203125 1.5625 -52.078125 Z M 1.5625 -52.078125 "/></g></g></g><g fill="#2b2b2b" fill-opacity="1"><g transform="translate(83.506942, 213.752585)"><g><path d="M 2.40625 -11.515625 C 2.40625 -13.117188 2.863281 -14.398438 3.78125 -15.359375 C 4.695312 -16.316406 6.035156 -16.796875 7.796875 -16.796875 C 9.316406 -16.796875 10.554688 -16.234375 11.515625 -15.109375 C 12.472656 -13.992188 13.472656 -12.71875 14.515625 -11.28125 C 15.554688 -9.84375 16.875 -8.5625 18.46875 -7.4375 C 20.070312 -6.320312 22.234375 -5.765625 24.953125 -5.765625 C 27.035156 -5.765625 28.675781 -5.984375 29.875 -6.421875 C 31.082031 -6.859375 31.6875 -7.878906 31.6875 -9.484375 C 31.6875 -10.765625 30.984375 -11.800781 29.578125 -12.59375 C 28.179688 -13.394531 26.398438 -14.132812 24.234375 -14.8125 C 22.078125 -15.5 19.78125 -16.257812 17.34375 -17.09375 C 14.90625 -17.9375 12.601562 -19 10.4375 -20.28125 C 8.28125 -21.5625 6.5 -23.21875 5.09375 -25.25 C 3.695312 -27.289062 3 -29.875 3 -33 C 3 -36.519531 3.796875 -39.335938 5.390625 -41.453125 C 6.992188 -43.578125 8.992188 -45.160156 11.390625 -46.203125 C 13.796875 -47.242188 16.175781 -47.921875 18.53125 -48.234375 C 20.894531 -48.554688 22.835938 -48.71875 24.359375 -48.71875 C 28.441406 -48.71875 32.242188 -48.238281 35.765625 -47.28125 C 39.285156 -46.320312 42.125 -44.898438 44.28125 -43.015625 C 46.4375 -41.140625 47.515625 -38.84375 47.515625 -36.125 C 47.515625 -34.757812 47.015625 -33.597656 46.015625 -32.640625 C 45.015625 -31.679688 43.835938 -31.203125 42.484375 -31.203125 C 40.398438 -31.203125 38.71875 -31.78125 37.4375 -32.9375 C 36.15625 -34.101562 34.992188 -35.425781 33.953125 -36.90625 C 32.921875 -38.382812 31.722656 -39.703125 30.359375 -40.859375 C 28.992188 -42.015625 27.234375 -42.59375 25.078125 -42.59375 C 22.921875 -42.59375 21.5 -42.09375 20.8125 -41.09375 C 20.132812 -40.09375 19.796875 -39.078125 19.796875 -38.046875 C 19.796875 -36.523438 20.472656 -35.363281 21.828125 -34.5625 C 23.191406 -33.757812 24.953125 -33.097656 27.109375 -32.578125 C 29.273438 -32.054688 31.554688 -31.472656 33.953125 -30.828125 C 36.359375 -30.191406 38.640625 -29.332031 40.796875 -28.25 C 42.960938 -27.175781 44.722656 -25.660156 46.078125 -23.703125 C 47.441406 -21.742188 48.125 -19.160156 48.125 -15.953125 C 48.125 -11.878906 46.941406 -8.617188 44.578125 -6.171875 C 42.222656 -3.734375 39.203125 -1.972656 35.515625 -0.890625 C 31.835938 0.179688 27.957031 0.71875 23.875 0.71875 C 22.195312 0.71875 20.15625 0.515625 17.75 0.109375 C 15.351562 -0.285156 12.972656 -0.941406 10.609375 -1.859375 C 8.253906 -2.773438 6.296875 -4.015625 4.734375 -5.578125 C 3.179688 -7.140625 2.40625 -9.117188 2.40625 -11.515625 Z M 2.40625 -11.515625 "/></g></g></g><g fill="#2b2b2b" fill-opacity="1"><g transform="translate(129.106959, 213.752585)"><g><path d="M 1.203125 -45.125 C 1.203125 -46.320312 1.597656 -47.117188 2.390625 -47.515625 C 3.191406 -47.921875 4.3125 -48.320312 5.75 -48.71875 C 7.195312 -49.113281 8.878906 -49.914062 10.796875 -51.125 C 13.359375 -52.71875 15.195312 -54.253906 16.3125 -55.734375 C 17.4375 -57.210938 18.316406 -58.410156 18.953125 -59.328125 C 19.597656 -60.253906 20.441406 -60.71875 21.484375 -60.71875 C 22.921875 -60.71875 23.78125 -60 24.0625 -58.5625 C 24.34375 -57.125 24.484375 -55.523438 24.484375 -53.765625 L 24.484375 -49.3125 C 24.484375 -48.4375 24.921875 -48 25.796875 -48 L 27.71875 -48 C 29.71875 -48 30.71875 -47 30.71875 -45 C 30.71875 -42.914062 29.71875 -41.875 27.71875 -41.875 L 25.796875 -41.875 C 24.921875 -41.875 24.484375 -41.4375 24.484375 -40.5625 L 24.484375 -26.515625 C 24.484375 -21.398438 24.539062 -17.679688 24.65625 -15.359375 C 24.78125 -13.035156 25.398438 -11.316406 26.515625 -10.203125 C 27.234375 -9.554688 27.832031 -9.15625 28.3125 -9 C 28.800781 -8.84375 29.164062 -8.644531 29.40625 -8.40625 C 29.644531 -8.164062 29.765625 -7.601562 29.765625 -6.71875 C 29.765625 -5.195312 28.898438 -3.578125 27.171875 -1.859375 C 25.453125 -0.140625 22.4375 0.71875 18.125 0.71875 C 13.082031 0.71875 9.660156 -1.097656 7.859375 -4.734375 C 6.054688 -8.378906 5.15625 -13.117188 5.15625 -18.953125 L 5.28125 -36.359375 C 5.28125 -38.515625 4.9375 -40.015625 4.25 -40.859375 C 3.570312 -41.703125 2.894531 -42.363281 2.21875 -42.84375 C 1.539062 -43.320312 1.203125 -44.082031 1.203125 -45.125 Z M 1.203125 -45.125 "/></g></g></g><g fill="#2b2b2b" fill-opacity="1"><g transform="translate(155.506977, 213.752585)"><g><path d="M 15.234375 0 C 14.035156 0 12.613281 0.117188 10.96875 0.359375 C 9.332031 0.597656 7.796875 0.71875 6.359375 0.71875 C 4.992188 0.71875 3.851562 0.515625 2.9375 0.109375 C 2.019531 -0.285156 1.5625 -1.082031 1.5625 -2.28125 C 1.5625 -3.15625 1.757812 -3.8125 2.15625 -4.25 C 2.5625 -4.695312 3.039062 -5.257812 3.59375 -5.9375 C 4.15625 -6.613281 4.632812 -7.671875 5.03125 -9.109375 C 5.4375 -10.554688 5.640625 -12.679688 5.640625 -15.484375 C 5.640625 -19.160156 5.660156 -21.816406 5.703125 -23.453125 C 5.742188 -25.097656 5.765625 -26.300781 5.765625 -27.0625 C 5.765625 -27.820312 5.765625 -28.679688 5.765625 -29.640625 C 5.765625 -31.796875 5.421875 -33.296875 4.734375 -34.140625 C 4.054688 -34.984375 3.378906 -35.644531 2.703125 -36.125 C 2.023438 -36.601562 1.6875 -37.363281 1.6875 -38.40625 C 1.6875 -39.601562 2.082031 -40.421875 2.875 -40.859375 C 3.675781 -41.296875 4.816406 -41.675781 6.296875 -42 C 7.773438 -42.320312 9.554688 -42.84375 11.640625 -43.5625 C 14.203125 -44.519531 15.960938 -45.378906 16.921875 -46.140625 C 17.878906 -46.898438 18.597656 -47.519531 19.078125 -48 C 19.554688 -48.476562 20.316406 -48.71875 21.359375 -48.71875 C 22.796875 -48.71875 23.753906 -48.078125 24.234375 -46.796875 C 24.710938 -45.515625 24.953125 -43.992188 24.953125 -42.234375 L 24.953125 -15.484375 C 24.953125 -12.679688 25.148438 -10.554688 25.546875 -9.109375 C 25.953125 -7.671875 26.4375 -6.613281 27 -5.9375 C 27.5625 -5.257812 28.039062 -4.695312 28.4375 -4.25 C 28.84375 -3.8125 29.046875 -3.15625 29.046875 -2.28125 C 29.046875 -1.082031 28.582031 -0.285156 27.65625 0.109375 C 26.738281 0.515625 25.597656 0.71875 24.234375 0.71875 C 22.710938 0.71875 21.132812 0.597656 19.5 0.359375 C 17.863281 0.117188 16.441406 0 15.234375 0 Z M 1.5625 -52.078125 C 0.757812 -54.484375 1.175781 -57.082031 2.8125 -59.875 C 4.457031 -62.675781 6.957031 -64.957031 10.3125 -66.71875 C 13.113281 -68.15625 15.675781 -68.875 18 -68.875 C 21.519531 -68.875 23.800781 -67.4375 24.84375 -64.5625 C 25.71875 -62.082031 25.332031 -59.484375 23.6875 -56.765625 C 22.050781 -54.046875 19.554688 -51.765625 16.203125 -49.921875 C 13.316406 -48.484375 10.71875 -47.765625 8.40625 -47.765625 C 4.957031 -47.765625 2.675781 -49.203125 1.5625 -52.078125 Z M 1.5625 -52.078125 "/></g></g></g><g fill="#2b2b2b" fill-opacity="1"><g transform="translate(180.706991, 213.752585)"><g><path d="M 0.59375 -38.40625 C 0.59375 -40.476562 1.59375 -41.515625 3.59375 -41.515625 L 7.078125 -41.515625 L 7.203125 -46.5625 C 7.203125 -50.882812 8.179688 -54.382812 10.140625 -57.0625 C 12.097656 -59.738281 14.578125 -61.695312 17.578125 -62.9375 C 20.578125 -64.175781 23.554688 -64.796875 26.515625 -64.796875 C 31.078125 -64.796875 34.378906 -64.375 36.421875 -63.53125 C 38.460938 -62.695312 39.640625 -61.476562 39.953125 -59.875 C 40.273438 -58.28125 40.035156 -56.242188 39.234375 -53.765625 C 38.441406 -51.359375 37.625 -49.773438 36.78125 -49.015625 C 35.9375 -48.253906 34.957031 -47.875 33.84375 -47.875 C 32.800781 -47.875 31.976562 -48.414062 31.375 -49.5 C 30.78125 -50.582031 30.242188 -51.84375 29.765625 -53.28125 C 29.285156 -54.71875 28.679688 -55.976562 27.953125 -57.0625 C 27.234375 -58.144531 26.195312 -58.6875 24.84375 -58.6875 C 23.5625 -58.6875 22.441406 -58.242188 21.484375 -57.359375 C 20.523438 -56.484375 20.046875 -55.203125 20.046875 -53.515625 C 20.046875 -51.921875 20.460938 -50.582031 21.296875 -49.5 C 22.140625 -48.414062 23.0625 -47.296875 24.0625 -46.140625 C 25.0625 -44.984375 25.757812 -43.441406 26.15625 -41.515625 L 30.125 -41.515625 C 32.125 -41.515625 33.125 -40.476562 33.125 -38.40625 C 33.125 -36.40625 32.125 -35.40625 30.125 -35.40625 L 26.40625 -35.40625 L 26.40625 -15.71875 C 26.40625 -12.84375 26.601562 -10.660156 27 -9.171875 C 27.394531 -7.691406 27.875 -6.613281 28.4375 -5.9375 C 29 -5.257812 29.476562 -4.695312 29.875 -4.25 C 30.28125 -3.8125 30.484375 -3.15625 30.484375 -2.28125 C 30.484375 -1.082031 30.019531 -0.285156 29.09375 0.109375 C 28.175781 0.515625 27.039062 0.71875 25.6875 0.71875 C 24.164062 0.71875 22.582031 0.597656 20.9375 0.359375 C 19.300781 0.117188 17.882812 0 16.6875 0 C 15.476562 0 14.050781 0.117188 12.40625 0.359375 C 10.769531 0.597656 9.234375 0.71875 7.796875 0.71875 C 6.441406 0.71875 5.300781 0.515625 4.375 0.109375 C 3.457031 -0.285156 3 -1.082031 3 -2.28125 C 3 -3.15625 3.195312 -3.8125 3.59375 -4.25 C 4 -4.695312 4.476562 -5.257812 5.03125 -5.9375 C 5.59375 -6.613281 6.070312 -7.671875 6.46875 -9.109375 C 6.875 -10.554688 7.078125 -12.679688 7.078125 -15.484375 L 7.078125 -35.40625 L 3.59375 -35.40625 C 1.59375 -35.40625 0.59375 -36.40625 0.59375 -38.40625 Z M 0.59375 -38.40625 "/></g></g></g><g fill="#2b2b2b" fill-opacity="1"><g transform="translate(216.467017, 213.752585)"><g><path d="M 15.234375 0 C 14.035156 0 12.613281 0.117188 10.96875 0.359375 C 9.332031 0.597656 7.796875 0.71875 6.359375 0.71875 C 4.992188 0.71875 3.851562 0.515625 2.9375 0.109375 C 2.019531 -0.285156 1.5625 -1.082031 1.5625 -2.28125 C 1.5625 -3.15625 1.757812 -3.8125 2.15625 -4.25 C 2.5625 -4.695312 3.039062 -5.257812 3.59375 -5.9375 C 4.15625 -6.613281 4.632812 -7.671875 5.03125 -9.109375 C 5.4375 -10.554688 5.640625 -12.679688 5.640625 -15.484375 C 5.640625 -19.160156 5.660156 -21.816406 5.703125 -23.453125 C 5.742188 -25.097656 5.765625 -26.300781 5.765625 -27.0625 C 5.765625 -27.820312 5.765625 -28.679688 5.765625 -29.640625 C 5.765625 -31.796875 5.421875 -33.296875 4.734375 -34.140625 C 4.054688 -34.984375 3.378906 -35.644531 2.703125 -36.125 C 2.023438 -36.601562 1.6875 -37.363281 1.6875 -38.40625 C 1.6875 -39.601562 2.082031 -40.421875 2.875 -40.859375 C 3.675781 -41.296875 4.816406 -41.675781 6.296875 -42 C 7.773438 -42.320312 9.554688 -42.84375 11.640625 -43.5625 C 14.203125 -44.519531 15.960938 -45.378906 16.921875 -46.140625 C 17.878906 -46.898438 18.597656 -47.519531 19.078125 -48 C 19.554688 -48.476562 20.316406 -48.71875 21.359375 -48.71875 C 22.796875 -48.71875 23.753906 -48.078125 24.234375 -46.796875 C 24.710938 -45.515625 24.953125 -43.992188 24.953125 -42.234375 L 24.953125 -15.484375 C 24.953125 -12.679688 25.148438 -10.554688 25.546875 -9.109375 C 25.953125 -7.671875 26.4375 -6.613281 27 -5.9375 C 27.5625 -5.257812 28.039062 -4.695312 28.4375 -4.25 C 28.84375 -3.8125 29.046875 -3.15625 29.046875 -2.28125 C 29.046875 -1.082031 28.582031 -0.285156 27.65625 0.109375 C 26.738281 0.515625 25.597656 0.71875 24.234375 0.71875 C 22.710938 0.71875 21.132812 0.597656 19.5 0.359375 C 17.863281 0.117188 16.441406 0 15.234375 0 Z M 1.5625 -52.078125 C 0.757812 -54.484375 1.175781 -57.082031 2.8125 -59.875 C 4.457031 -62.675781 6.957031 -64.957031 10.3125 -66.71875 C 13.113281 -68.15625 15.675781 -68.875 18 -68.875 C 21.519531 -68.875 23.800781 -67.4375 24.84375 -64.5625 C 25.71875 -62.082031 25.332031 -59.484375 23.6875 -56.765625 C 22.050781 -54.046875 19.554688 -51.765625 16.203125 -49.921875 C 13.316406 -48.484375 10.71875 -47.765625 8.40625 -47.765625 C 4.957031 -47.765625 2.675781 -49.203125 1.5625 -52.078125 Z M 1.5625 -52.078125 "/></g></g></g><g fill="#2b2b2b" fill-opacity="1"><g transform="translate(241.66702, 213.752585)"><g><path d="M 28.921875 0.71875 C 24.679688 0.71875 20.519531 -0.117188 16.4375 -1.796875 C 12.351562 -3.472656 8.992188 -6.113281 6.359375 -9.71875 C 3.722656 -13.320312 2.40625 -18.039062 2.40625 -23.875 C 2.40625 -28.832031 3.484375 -33.171875 5.640625 -36.890625 C 7.796875 -40.617188 10.796875 -43.519531 14.640625 -45.59375 C 18.484375 -47.675781 22.921875 -48.71875 27.953125 -48.71875 C 32.921875 -48.71875 36.960938 -48.117188 40.078125 -46.921875 C 43.203125 -45.722656 45.625 -44.179688 47.34375 -42.296875 C 49.0625 -40.421875 50.238281 -38.5 50.875 -36.53125 C 51.519531 -34.570312 51.84375 -32.875 51.84375 -31.4375 C 51.84375 -27.4375 50.601562 -24.175781 48.125 -21.65625 C 45.644531 -19.132812 42.484375 -17.296875 38.640625 -16.140625 C 34.796875 -14.984375 30.875 -14.40625 26.875 -14.40625 C 25.757812 -14.40625 24.941406 -14.003906 24.421875 -13.203125 C 23.898438 -12.398438 23.738281 -11.476562 23.9375 -10.4375 C 24.132812 -9.394531 24.773438 -8.472656 25.859375 -7.671875 C 26.941406 -6.878906 28.484375 -6.484375 30.484375 -6.484375 C 33.359375 -6.484375 35.632812 -7 37.3125 -8.03125 C 39 -9.070312 40.34375 -10.273438 41.34375 -11.640625 C 42.34375 -13.003906 43.300781 -14.203125 44.21875 -15.234375 C 45.132812 -16.273438 46.351562 -16.796875 47.875 -16.796875 C 49.238281 -16.796875 50.257812 -16.375 50.9375 -15.53125 C 51.613281 -14.695312 51.953125 -13.757812 51.953125 -12.71875 C 51.953125 -10 50.890625 -7.640625 48.765625 -5.640625 C 46.648438 -3.640625 43.832031 -2.078125 40.3125 -0.953125 C 36.800781 0.160156 33.003906 0.71875 28.921875 0.71875 Z M 27.953125 -42.59375 C 26.273438 -42.59375 24.9375 -41.59375 23.9375 -39.59375 C 22.9375 -37.59375 22.4375 -34.914062 22.4375 -31.5625 C 22.4375 -28.195312 22.9375 -25.515625 23.9375 -23.515625 C 24.9375 -21.515625 26.273438 -20.515625 27.953125 -20.515625 C 29.640625 -20.515625 30.984375 -21.515625 31.984375 -23.515625 C 32.984375 -25.515625 33.484375 -28.195312 33.484375 -31.5625 C 33.484375 -34.914062 32.984375 -37.59375 31.984375 -39.59375 C 30.984375 -41.59375 29.640625 -42.59375 27.953125 -42.59375 Z M 27.953125 -42.59375 "/></g></g></g><g fill="#2b2b2b" fill-opacity="1"><g transform="translate(291.10705, 213.752585)"><g><path d="M 2.40625 -11.515625 C 2.40625 -13.117188 2.863281 -14.398438 3.78125 -15.359375 C 4.695312 -16.316406 6.035156 -16.796875 7.796875 -16.796875 C 9.316406 -16.796875 10.554688 -16.234375 11.515625 -15.109375 C 12.472656 -13.992188 13.472656 -12.71875 14.515625 -11.28125 C 15.554688 -9.84375 16.875 -8.5625 18.46875 -7.4375 C 20.070312 -6.320312 22.234375 -5.765625 24.953125 -5.765625 C 27.035156 -5.765625 28.675781 -5.984375 29.875 -6.421875 C 31.082031 -6.859375 31.6875 -7.878906 31.6875 -9.484375 C 31.6875 -10.765625 30.984375 -11.800781 29.578125 -12.59375 C 28.179688 -13.394531 26.398438 -14.132812 24.234375 -14.8125 C 22.078125 -15.5 19.78125 -16.257812 17.34375 -17.09375 C 14.90625 -17.9375 12.601562 -19 10.4375 -20.28125 C 8.28125 -21.5625 6.5 -23.21875 5.09375 -25.25 C 3.695312 -27.289062 3 -29.875 3 -33 C 3 -36.519531 3.796875 -39.335938 5.390625 -41.453125 C 6.992188 -43.578125 8.992188 -45.160156 11.390625 -46.203125 C 13.796875 -47.242188 16.175781 -47.921875 18.53125 -48.234375 C 20.894531 -48.554688 22.835938 -48.71875 24.359375 -48.71875 C 28.441406 -48.71875 32.242188 -48.238281 35.765625 -47.28125 C 39.285156 -46.320312 42.125 -44.898438 44.28125 -43.015625 C 46.4375 -41.140625 47.515625 -38.84375 47.515625 -36.125 C 47.515625 -34.757812 47.015625 -33.597656 46.015625 -32.640625 C 45.015625 -31.679688 43.835938 -31.203125 42.484375 -31.203125 C 40.398438 -31.203125 38.71875 -31.78125 37.4375 -32.9375 C 36.15625 -34.101562 34.992188 -35.425781 33.953125 -36.90625 C 32.921875 -38.382812 31.722656 -39.703125 30.359375 -40.859375 C 28.992188 -42.015625 27.234375 -42.59375 25.078125 -42.59375 C 22.921875 -42.59375 21.5 -42.09375 20.8125 -41.09375 C 20.132812 -40.09375 19.796875 -39.078125 19.796875 -38.046875 C 19.796875 -36.523438 20.472656 -35.363281 21.828125 -34.5625 C 23.191406 -33.757812 24.953125 -33.097656 27.109375 -32.578125 C 29.273438 -32.054688 31.554688 -31.472656 33.953125 -30.828125 C 36.359375 -30.191406 38.640625 -29.332031 40.796875 -28.25 C 42.960938 -27.175781 44.722656 -25.660156 46.078125 -23.703125 C 47.441406 -21.742188 48.125 -19.160156 48.125 -15.953125 C 48.125 -11.878906 46.941406 -8.617188 44.578125 -6.171875 C 42.222656 -3.734375 39.203125 -1.972656 35.515625 -0.890625 C 31.835938 0.179688 27.957031 0.71875 23.875 0.71875 C 22.195312 0.71875 20.15625 0.515625 17.75 0.109375 C 15.351562 -0.285156 12.972656 -0.941406 10.609375 -1.859375 C 8.253906 -2.773438 6.296875 -4.015625 4.734375 -5.578125 C 3.179688 -7.140625 2.40625 -9.117188 2.40625 -11.515625 Z M 2.40625 -11.515625 "/></g></g></g></svg>